<?xml version="1.0" encoding="UTF-8" ?>
<!DOCTYPE svg PUBLIC "-//W3C//DTD SVG 1.1//EN" "http://www.w3.org/Graphics/SVG/1.1/DTD/svg11.dtd">
<svg width="979pt" height="978pt" viewBox="0 0 979 978" version="1.1" xmlns="http://www.w3.org/2000/svg">
<path fill="#ffffff" fill-opacity="0.0" d=" M 0.00 0.00 L 979.00 0.00 L 979.00 978.00 L 402.91 978.00 C 462.31 976.89 520.94 965.26 578.19 950.04 C 623.85 937.87 669.07 923.90 713.28 907.14 C 751.78 892.45 789.34 875.05 824.58 853.61 C 854.64 834.96 883.72 813.95 907.28 787.34 C 935.37 755.95 956.19 718.12 967.51 677.54 C 980.94 628.57 979.11 577.15 975.50 527.00 C 968.21 461.42 951.07 397.44 931.59 334.55 C 920.87 299.48 908.19 265.00 893.75 231.28 C 877.99 195.24 859.87 160.04 837.23 127.79 C 809.77 89.04 774.86 54.74 732.65 32.38 C 689.74 10.02 641.00 1.13 592.95 0.45 C 539.54 -0.15 486.37 7.75 434.44 19.81 C 400.37 27.34 366.81 36.95 333.54 47.40 C 293.79 60.01 254.51 74.26 216.60 91.69 C 181.68 107.95 147.43 126.23 116.90 149.89 C 81.47 177.18 50.37 211.10 30.52 251.45 C 13.76 284.48 5.26 321.17 2.21 357.94 C -1.32 403.00 1.99 448.45 9.88 492.91 C 17.48 536.87 28.28 580.24 41.16 622.95 C 53.30 662.64 66.56 702.06 82.77 740.29 C 97.04 774.25 113.51 807.40 133.85 838.15 C 152.76 866.54 174.68 893.25 200.99 915.10 C 240.00 947.05 288.02 967.69 337.92 974.64 C 354.74 976.89 371.73 977.48 388.68 978.00 L 0.00 978.00 L 0.00 0.00 Z" />
<path fill="#e01765" d=" M 434.44 19.81 C 486.37 7.75 539.54 -0.15 592.95 0.45 C 641.00 1.13 689.74 10.02 732.65 32.38 C 774.86 54.74 809.77 89.04 837.23 127.79 C 859.87 160.04 877.99 195.24 893.75 231.28 C 908.19 265.00 920.87 299.48 931.59 334.55 C 951.07 397.44 968.21 461.42 975.50 527.00 C 979.11 577.15 980.94 628.57 967.51 677.54 C 956.19 718.12 935.37 755.95 907.28 787.34 C 883.72 813.95 854.64 834.96 824.58 853.61 C 789.34 875.05 751.78 892.45 713.28 907.14 C 669.07 923.90 623.85 937.87 578.19 950.04 C 520.94 965.26 462.31 976.89 402.91 978.00 L 388.68 978.00 C 371.73 977.48 354.74 976.89 337.92 974.64 C 288.02 967.69 240.00 947.05 200.99 915.10 C 174.68 893.25 152.76 866.54 133.85 838.15 C 113.51 807.40 97.04 774.25 82.77 740.29 C 66.56 702.06 53.30 662.64 41.16 622.95 C 28.28 580.24 17.48 536.87 9.88 492.91 C 1.99 448.45 -1.32 403.00 2.21 357.94 C 5.26 321.17 13.76 284.48 30.52 251.45 C 50.37 211.10 81.47 177.18 116.90 149.89 C 147.43 126.23 181.68 107.95 216.60 91.69 C 254.51 74.26 293.79 60.01 333.54 47.40 C 366.81 36.95 400.37 27.34 434.44 19.81 Z" />
<path fill="#ffffff" d=" M 450.85 179.41 C 476.30 174.82 502.49 175.07 528.02 178.95 C 539.03 180.81 550.14 182.14 560.95 185.03 C 598.67 194.89 633.19 217.03 657.39 247.66 C 678.25 274.01 689.46 307.30 691.32 340.69 C 692.67 365.27 688.98 390.16 680.22 413.19 C 674.57 427.83 667.12 441.93 656.97 453.97 C 632.67 483.89 599.41 504.37 571.62 530.65 C 560.88 540.98 550.17 551.90 543.67 565.52 C 536.62 579.83 532.90 595.47 529.91 611.06 C 497.12 610.96 463.17 613.51 431.80 601.96 C 433.92 578.67 434.80 554.18 446.21 533.14 C 451.45 524.51 456.40 515.64 462.79 507.77 C 491.59 471.20 534.32 448.56 562.22 411.16 C 572.81 397.58 576.06 379.85 576.08 363.00 C 576.14 354.93 575.85 346.85 575.21 338.81 C 570.85 308.36 545.22 282.28 514.82 277.51 C 491.10 274.27 466.47 275.00 443.55 282.35 C 433.03 285.73 423.05 290.70 413.82 296.77 C 392.65 311.06 376.79 331.51 357.12 347.61 C 331.75 332.66 309.51 313.19 287.29 294.03 C 307.99 263.76 333.89 236.89 364.16 216.10 C 390.26 198.38 419.69 185.02 450.85 179.41 Z" />
<path fill="#ffffff" d=" M 471.43 678.59 C 500.04 672.51 530.97 691.06 540.63 718.36 C 543.48 726.21 543.69 734.69 543.56 742.95 C 541.57 779.38 504.10 809.90 467.95 803.00 C 441.27 795.84 419.81 770.88 418.26 743.05 C 417.36 727.63 424.19 712.62 434.28 701.25 C 444.10 690.31 457.11 682.11 471.43 678.59 Z" />
</svg>
